{"title":"Moving Day 2012 DVDRip XviD-PROJECT X [SilverTorrent]","uid":7682376,"size":742019415,"categoryP":"video","categoryS":"movies","magnet":"?xt=urn:btih:e9e17990084b0d8c986a18ae17e418eb30ff63c4&amp;dn=Moving+Day+2012+DVDRip+XviD-PROJECT+X+%5BSilverTorrent%5D&amp;tr=udp%3A%2F%2Ftracker.openbittorrent.com%3A80&amp;tr=udp%3A%2F%2Fopen.demonii.com%3A1337&amp;tr=udp%3A%2F%2Ftracker.coppersurfer.tk%3A6969&amp;tr=udp%3A%2F%2Fexodus.desync.com%3A6969","seeders":0,"leechers":0,"uploader":"AliBaloch","files":-1,"time":1348854823,"description":"SILVERTORRENT Clean Verified Torrents Download\n   &lt;a href=&quot;\nhttp://silvertorrent.org/&quot; rel=&quot;nofollow&quot; target=&quot;_NEW&quot;&gt;\nhttp://silvertorrent.org/&lt;/a&gt;\n\n--------------------------------------------------\n &lt;a href=&quot;\nhttp://www.imdb.com/title/tt1864526/&quot; rel=&quot;nofollow&quot; target=&quot;_NEW&quot;&gt;\nhttp://www.imdb.com/title/tt1864526/&lt;/a&gt;\n\nMoving.Day.2012.DVDRip.XviD-PROJECT X\n\nSource: R1 Retail DVD9\n\nFormat : AVI\nFormat/Info : Audio Video Interleave\nFile size : 701 MiB\nDuration : 1h 34mn\nOverall bit rate : 1 032 Kbps\n\n\nVideo\nID : 0\nFormat : MPEG-4 Visual\nFormat profile : Advanced Simple@L5\nFormat settings, BVOP : 2\nFormat settings, QPel : No\nFormat settings, GMC : No warppoints\nFormat settings, Matrix : Default (H.263)\nMuxing mode : Packed bitstream\nCodec ID : XVID\nCodec ID/Hint : XviD\nDuration : 1h 34mn\nBit rate : 895 Kbps\nWidth : 640 pixels\nHeight : 272 pixels\nDisplay aspect ratio : 2.35:1\nFrame rate : 23.976 fps\nColor space : YUV\nChroma subsampling : 4:2:0\nBit depth : 8 bits\nScan type : Progressive\nCompression mode : Lossy\nBits/(Pixel*Frame) : 0.214\nStream size : 607 MiB (87%)\nWriting library : XviD 64\n\nAudio\nID : 1\nFormat : MPEG Audio\nFormat version : Version 1\nFormat profile : Layer 3\nMode : Joint stereo\nMode extension : MS Stereo\nCodec ID : 55\nCodec ID/Hint : MP3\nDuration : 1h 34mn\nBit rate mode : Constant\nBit rate : 128 Kbps\nChannel(s) : 2 channels\nSampling rate : 48.0 KHz\nCompression mode : Lossy\nStream size : 86.9 MiB (12%)\nAlignment : Split accross interleaves\nInterleave, duration : 42 ms (1.00 video frame)\nInterleave, preload duration : 500 ms\nWriting library : LAME3.99.5\n\nSCREENS: &lt;a href=&quot;\nhttp://lookpic.com/O/i2/1373/Zue7NytT.png&quot; rel=&quot;nofollow&quot; target=&quot;_NEW&quot;&gt;\nhttp://lookpic.com/O/i2/1373/Zue7NytT.png&lt;/a&gt; &lt;a href=&quot;\nhttp://lookpic.com/O/i2/795/iyaTR71.png&quot; rel=&quot;nofollow&quot; target=&quot;_NEW&quot;&gt;\nhttp://lookpic.com/O/i2/795/iyaTR71.png&lt;/a&gt; &lt;a href=&quot;\nhttp://lookpic.com/O/i2/1887/7ggCbK4i.png&quot; rel=&quot;nofollow&quot; target=&quot;_NEW&quot;&gt;\nhttp://lookpic.com/O/i2/1887/7ggCbK4i.png&lt;/a&gt; &lt;a href=&quot;\nhttp://lookpic.com/O/i2/299/dOiYy8A3.png&quot; rel=&quot;nofollow&quot; target=&quot;_NEW&quot;&gt;\nhttp://lookpic.com/O/i2/299/dOiYy8A3.png&lt;/a&gt;\n\nCheep SeedBox: http://www.secureboxes.net/?r=st\n ","torrent":{"xt":"urn:btih:e9e17990084b0d8c986a18ae17e418eb30ff63c4","amp;dn":"Moving+Day+2012+DVDRip+XviD-PROJECT+X+%5BSilverTorrent%5D","amp;tr":["udp%3A%2F%2Ftracker.openbittorrent.com%3A80","udp%3A%2F%2Fopen.demonii.com%3A1337","udp%3A%2F%2Ftracker.coppersurfer.tk%3A6969","udp%3A%2F%2Fexodus.desync.com%3A6969"],"infoHash":"e9e17990084b0d8c986a18ae17e418eb30ff63c4","infoHashBuffer":{"type":"Buffer","data":[233,225,121,144,8,75,13,140,152,106,24,174,23,228,24,235,48,255,99,196]},"announce":[],"urlList":[]}}